<?xml version="1.0" encoding="UTF-8" standalone="no"?>
<svg
   xmlns:dc="http://purl.org/dc/elements/1.1/"
   xmlns:cc="http://creativecommons.org/ns#"
   xmlns:rdf="http://www.w3.org/1999/02/22-rdf-syntax-ns#"
   xmlns:svg="http://www.w3.org/2000/svg"
   xmlns="http://www.w3.org/2000/svg"
   xmlns:sodipodi="http://sodipodi.sourceforge.net/DTD/sodipodi-0.dtd"
   xmlns:inkscape="http://www.inkscape.org/namespaces/inkscape"
   width="40.396206mm"
   height="36.332962mm"
   viewBox="0 0 40.396207 36.332963"
   version="1.1"
   id="svg919"
   sodipodi:docname="spiral-inverse-logo.svg"
   inkscape:version="1.0.1 (3bc2e813f5, 2020-09-07)">
  <defs
     id="defs913" />
  <sodipodi:namedview
     id="base"
     pagecolor="#ffffff"
     bordercolor="#666666"
     borderopacity="1.0"
     inkscape:pageopacity="0"
     inkscape:pageshadow="2"
     inkscape:zoom="5.6"
     inkscape:cx="43.348587"
     inkscape:cy="39.025892"
     inkscape:document-units="mm"
     inkscape:current-layer="layer1"
     inkscape:document-rotation="0"
     showgrid="false"
     inkscape:window-width="2560"
     inkscape:window-height="1377"
     inkscape:window-x="-8"
     inkscape:window-y="-8"
     inkscape:window-maximized="1"
     fit-margin-top="0"
     fit-margin-left="0"
     fit-margin-right="0"
     fit-margin-bottom="0"
     inkscape:pagecheckerboard="false" />
  <metadata
     id="metadata916">
    <rdf:RDF>
      <cc:Work
         rdf:about="">
        <dc:format>image/svg+xml</dc:format>
        <dc:type
           rdf:resource="http://purl.org/dc/dcmitype/StillImage" />
        <dc:title></dc:title>
      </cc:Work>
    </rdf:RDF>
  </metadata>
  <g
     inkscape:label="Layer 1"
     inkscape:groupmode="layer"
     id="layer1"
     transform="translate(0.41995272,-117.33641)">
    <rect
       style="fill:#ffffff;fill-opacity:1;stroke:none;stroke-width:0.865;stroke-opacity:1"
       id="rect1506"
       width="40.396206"
       height="36.332962"
       x="-0.41995272"
       y="117.33641" />
    <path
       sodipodi:type="spiral"
       style="fill:none;fill-opacity:1;fill-rule:evenodd;stroke:#30887e;stroke-width:0.865;stroke-miterlimit:4;stroke-dasharray:none;stroke-opacity:1"
       id="path911"
       sodipodi:cx="19.400208"
       sodipodi:cy="135.55853"
       sodipodi:expansion="1"
       sodipodi:revolution="3"
       sodipodi:radius="6.038754"
       sodipodi:argument="-20.771797"
       sodipodi:t0="0"
       d="m 19.400208,135.55853 c -0.104232,-0.28426 0.331762,-0.28075 0.47247,-0.17324 0.38131,0.29135 0.197343,0.86744 -0.125992,1.11818 -0.57837,0.44852 -1.402457,0.15057 -1.763889,-0.42522 -0.530417,-0.845 -0.10582,-1.94597 0.724454,-2.4096 1.106624,-0.61795 2.492652,-0.0621 3.055308,1.02369 0.708044,1.3664 0.01905,3.04089 -1.322917,3.70101 -1.625306,0.7995 -3.590013,-0.0237 -4.346726,-1.62214 -0.89176,-1.88374 0.06619,-4.13969 1.921378,-4.99244 2.141889,-0.98453 4.689729,0.10855 5.638146,2.22061 1.077651,2.39985 -0.150813,5.24003 -2.519841,6.28386 -2.657691,1.17101 -5.790516,-0.193 -6.929564,-2.81908 -1.264559,-2.91544 0.235128,-6.34114 3.118303,-7.57527"
       transform="matrix(2.9534511,0,0,2.7868114,-36.9179,-241.78324)" />
  </g>
</svg>
