<svg width="2048" height="2048" viewBox="0 0 2048 2048" fill="none" xmlns="http://www.w3.org/2000/svg">
<rect width="2048" height="2048" rx="406" fill="#F4BB2E"/>
<path d="M563.16 493.792C571.663 488.712 581.431 489.113 581.431 489.113H698.891C705.151 489.273 711.267 491.024 716.663 494.201C722.058 497.379 726.556 501.878 729.732 507.275C740.775 525.968 729.3 542.834 729.3 542.834L501.187 938.624C497.804 943.501 493.467 947.641 488.437 950.792C480.506 955.54 470.989 955.53 470.989 955.53H352.705C352.705 955.53 331.894 955.771 321.302 936.646C310.711 917.521 323.009 900.505 323.009 900.505L550.641 506.06C553.77 501.026 558.064 496.819 563.16 493.792ZM835.978 493.792C844.481 488.712 854.25 489.113 854.25 489.113H971.71C977.97 489.271 984.087 491.021 989.483 494.199C994.879 497.376 999.376 501.877 1002.55 507.275C1013.59 525.968 1002.12 542.834 1002.12 542.834L774.005 938.624C770.623 943.501 766.285 947.641 761.255 950.792C753.324 955.54 743.807 955.53 743.807 955.53H625.524C625.524 955.53 604.712 955.771 594.131 936.646C583.549 917.521 595.837 900.505 595.837 900.505L823.469 506.06C826.595 501.027 830.885 496.819 835.978 493.792ZM1287.81 1096.15C1296.31 1091.13 1306.08 1091.47 1306.08 1091.47H1423.54C1429.8 1091.63 1435.92 1093.38 1441.31 1096.56C1446.71 1099.74 1451.21 1104.24 1454.38 1109.63C1465.42 1128.34 1453.95 1145.19 1453.95 1145.19L1225.82 1541.02C1222.43 1545.9 1218.09 1550.04 1213.07 1553.2C1205.12 1557.95 1195.61 1557.94 1195.61 1557.94H1077.36C1077.36 1557.94 1056.55 1558.18 1045.96 1539.05C1035.37 1519.91 1047.67 1502.9 1047.67 1502.9L1275.3 1108.46C1278.42 1103.41 1282.71 1099.19 1287.81 1096.15ZM1560.64 1096.15C1569.14 1091.13 1578.91 1091.47 1578.91 1091.47H1696.37C1702.63 1091.63 1708.74 1093.38 1714.14 1096.56C1719.53 1099.74 1724.03 1104.24 1727.2 1109.63C1738.24 1128.34 1726.78 1145.19 1726.78 1145.19L1498.7 1541.06C1495.32 1545.94 1490.98 1550.09 1485.95 1553.24C1478.02 1557.99 1468.51 1557.98 1468.51 1557.98H1350.18C1350.18 1557.98 1329.37 1558.22 1318.78 1539.09C1308.19 1519.95 1320.49 1502.94 1320.49 1502.94L1548.12 1108.5C1551.24 1103.44 1555.53 1099.2 1560.64 1096.15Z" fill="black"/>
<path d="M1554.29 562.16C1559.36 570.663 1558.97 580.431 1558.97 580.431V697.891C1558.81 704.148 1557.06 710.261 1553.88 715.654C1550.7 721.046 1546.2 725.54 1540.81 728.712C1522.11 739.755 1505.25 728.29 1505.25 728.29L1109.42 500.187C1104.54 496.804 1100.4 492.467 1097.25 487.437C1092.49 479.506 1092.5 469.989 1092.5 469.989V351.705C1092.5 351.705 1092.26 330.894 1111.4 320.302C1130.53 309.711 1147.54 322.009 1147.54 322.009L1541.98 549.641C1547.03 552.765 1551.25 557.059 1554.29 562.16Z" fill="black"/>
<path d="M1554.29 834.978C1559.36 843.481 1558.97 853.25 1558.97 853.25V970.71C1558.81 976.97 1557.06 983.087 1553.88 988.483C1550.71 993.879 1546.21 998.376 1540.81 1001.55C1522.11 1012.59 1505.25 1001.12 1505.25 1001.12L1109.42 773.005C1104.54 769.623 1100.4 765.285 1097.25 760.255C1092.49 752.324 1092.5 742.807 1092.5 742.807V624.524C1092.5 624.524 1092.26 603.712 1111.4 593.131C1130.53 582.549 1147.54 594.838 1147.54 594.838L1541.98 822.469C1547.03 825.59 1551.25 829.881 1554.29 834.978Z" fill="black"/>
<path d="M951.842 1286.81C956.922 1295.31 956.53 1305.08 956.53 1305.08V1422.54C956.368 1428.8 954.614 1434.92 951.435 1440.31C948.256 1445.71 943.756 1450.2 938.359 1453.38C919.666 1464.42 902.8 1452.95 902.8 1452.95L506.969 1224.84C502.095 1221.45 497.956 1217.11 494.802 1212.09C490.053 1204.15 490.063 1194.64 490.063 1194.64V1076.36C490.063 1076.36 489.822 1055.55 508.947 1044.96C528.072 1034.37 545.089 1046.67 545.089 1046.67L939.514 1274.3C944.571 1277.41 948.8 1281.71 951.842 1286.81Z" fill="black"/>
<path d="M951.842 1559.63C956.922 1568.13 956.53 1577.9 956.53 1577.9V1695.36C956.368 1701.62 954.614 1707.73 951.435 1713.13C948.256 1718.53 943.756 1723.02 938.359 1726.2C919.666 1737.24 902.8 1725.78 902.8 1725.78L506.969 1497.66C502.095 1494.28 497.956 1489.94 494.802 1484.91C490.053 1476.98 490.063 1467.46 490.063 1467.46V1349.14C490.063 1349.14 489.822 1328.33 508.947 1317.74C528.072 1307.15 545.089 1319.45 545.089 1319.45L939.514 1547.12C944.569 1550.24 948.797 1554.53 951.842 1559.63Z" fill="black"/>
</svg>