<svg version="1.2" width="30mm" height="7.5mm" viewBox="100 0 2800 700" preserveAspectRatio="xMidYMid" fill-rule="evenodd" stroke-width="28.222" stroke-linejoin="round" xmlns="http://www.w3.org/2000/svg"><defs class="ClipPathGroup"><clipPath id="a" clipPathUnits="userSpaceOnUse"><path d="M0 0h3000v750H0z"/></clipPath></defs><g class="SlideGroup"><g class="Slide" clip-path="url(#a)"><g class="Page"><g class="Graphic"><path class="BoundingBox" fill="none" d="M87 16h3566v735H87z"/><text class="SVGTextShape"><tspan class="TextParagraph" font-family="Carlito, sans-serif" font-size="528" font-weight="400"><tspan class="TextPosition" x="1038" y="551"><tspan style="white-space:pre">HeartAI</tspan></tspan></tspan></text><path d="M507 672L238 425c-29-35-44-76-44-119 0-102 82-184 183-184 48 0 94 18 127 51 34-33 80-51 128-51 101 0 183 82 183 184 0 43-15 84-43 117L507 672zM377 156c-82 0-150 67-150 150 0 35 13 70 36 96l244 224 241-226c21-25 34-59 34-94 0-83-68-150-150-150-45 0-86 19-115 53l-13 15-12-15c-29-34-70-53-115-53z"/></g></g></g></g></svg>