<svg width="2048" height="2048" viewBox="0 0 2048 2048" fill="none" xmlns="http://www.w3.org/2000/svg"><rect width="2048" height="2048" rx="406" fill="#F4BB2E"/><path d="M563.16 493.792c8.503-5.08 18.271-4.679 18.271-4.679h117.46a36.886 36.886 0 0117.772 5.088 36.887 36.887 0 0113.069 13.074c11.043 18.693-.432 35.559-.432 35.559l-228.113 395.79a43.848 43.848 0 01-12.75 12.168c-7.931 4.748-17.448 4.738-17.448 4.738H352.705s-20.811.241-31.403-18.884c-10.591-19.125 1.707-36.141 1.707-36.141L550.641 506.06a36.97 36.97 0 0112.519-12.268zm272.818 0c8.503-5.08 18.272-4.679 18.272-4.679h117.46a36.854 36.854 0 0130.84 18.162c11.04 18.693-.43 35.559-.43 35.559l-228.115 395.79a43.835 43.835 0 01-12.75 12.168c-7.931 4.748-17.448 4.738-17.448 4.738H625.524s-20.812.241-31.393-18.884c-10.582-19.125 1.706-36.141 1.706-36.141L823.469 506.06a36.949 36.949 0 0112.509-12.268zm451.832 602.358c8.5-5.02 18.27-4.68 18.27-4.68h117.46c6.26.16 12.38 1.91 17.77 5.09 5.4 3.18 9.9 7.68 13.07 13.07 11.04 18.71-.43 35.56-.43 35.56l-228.13 395.83a44.18 44.18 0 01-12.75 12.18c-7.95 4.75-17.46 4.74-17.46 4.74h-118.25s-20.81.24-31.4-18.89c-10.59-19.14 1.71-36.15 1.71-36.15l227.63-394.44c3.12-5.05 7.41-9.27 12.51-12.31zm272.83 0c8.5-5.02 18.27-4.68 18.27-4.68h117.46a36.86 36.86 0 0130.83 18.16c11.04 18.71-.42 35.56-.42 35.56l-228.08 395.87a43.8 43.8 0 01-12.75 12.18c-7.93 4.75-17.44 4.74-17.44 4.74h-118.33s-20.81.24-31.4-18.89c-10.59-19.14 1.71-36.15 1.71-36.15l227.63-394.44c3.12-5.06 7.41-9.3 12.52-12.35zm-6.35-533.99c5.07 8.503 4.68 18.271 4.68 18.271v117.46a36.821 36.821 0 01-5.09 17.763 36.91 36.91 0 01-13.07 13.058c-18.7 11.043-35.56-.422-35.56-.422l-395.83-228.103a43.802 43.802 0 01-12.17-12.75c-4.76-7.931-4.75-17.448-4.75-17.448V351.705s-.24-20.811 18.9-31.403c19.13-10.591 36.14 1.707 36.14 1.707l394.44 227.632a36.975 36.975 0 0112.31 12.519zm0 272.818c5.07 8.503 4.68 18.272 4.68 18.272v117.46a36.859 36.859 0 01-5.09 17.773 36.758 36.758 0 01-13.07 13.067c-18.7 11.04-35.56-.43-35.56-.43l-395.83-228.115a43.79 43.79 0 01-12.17-12.75c-4.76-7.931-4.75-17.448-4.75-17.448V624.524s-.24-20.812 18.9-31.393c19.13-10.582 36.14 1.707 36.14 1.707l394.44 227.631a36.954 36.954 0 0112.31 12.509zM951.842 1286.81c5.08 8.5 4.688 18.27 4.688 18.27v117.46a36.895 36.895 0 01-18.171 30.84c-18.693 11.04-35.559-.43-35.559-.43l-395.831-228.11a44.136 44.136 0 01-12.167-12.75c-4.749-7.94-4.739-17.45-4.739-17.45v-118.28s-.241-20.81 18.884-31.4 36.142 1.71 36.142 1.71l394.425 227.63a36.84 36.84 0 0112.328 12.51zm0 272.82c5.08 8.5 4.688 18.27 4.688 18.27v117.46a36.898 36.898 0 01-18.171 30.84c-18.693 11.04-35.559-.42-35.559-.42l-395.831-228.12a43.885 43.885 0 01-12.167-12.75c-4.749-7.93-4.739-17.45-4.739-17.45v-118.32s-.241-20.81 18.884-31.4 36.142 1.71 36.142 1.71l394.425 227.67a36.974 36.974 0 0112.328 12.51z" fill="#000"/></svg>