<svg xmlns="http://www.w3.org/2000/svg" width="42.189" height="44.025" viewBox="0 0 11.162 11.648"><path d="M6.083 6.067c-.105-.284.331-.28.472-.173.381.291.197.867-.126 1.118-.578.449-1.402.15-1.764-.425-.53-.845-.106-1.946.725-2.41 1.106-.618 2.492-.062 3.055 1.024.708 1.366.019 3.041-1.323 3.701-1.625.8-3.59-.024-4.347-1.622-.891-1.884.067-4.14 1.922-4.993 2.142-.984 4.69.109 5.638 2.221 1.078 2.4-.15 5.24-2.52 6.284-2.658 1.171-5.79-.193-6.93-2.82-1.264-2.915.236-6.34 3.119-7.574" fill="none" stroke="#fff" stroke-width=".865"/></svg>