<svg xmlns="http://www.w3.org/2000/svg" width="152.679" height="137.321" viewBox="0 0 40.396 36.333"><path fill="#fff" d="M0 0h40.396v36.333H0z"/><path d="M19.4 135.559c-.104-.285.332-.281.473-.174.381.292.197.868-.126 1.118-.579.449-1.403.151-1.764-.425-.53-.845-.106-1.946.724-2.41 1.107-.617 2.493-.061 3.056 1.024.708 1.367.019 3.041-1.323 3.701-1.626.8-3.59-.023-4.347-1.622-.892-1.884.066-4.14 1.921-4.992 2.142-.985 4.69.108 5.638 2.22 1.078 2.4-.15 5.24-2.52 6.284-2.657 1.171-5.79-.193-6.929-2.819-1.265-2.915.235-6.341 3.118-7.575" transform="matrix(2.95345 0 0 2.78681 -36.498 -359.12)" fill="none" stroke="#30887e" stroke-width=".865"/></svg>